{
  "source": "C:\\Users\\Peter\\Desktop\\stuff\\MIUN\\quantitative_research\\video_compression\\videos\\BVI-HD\\BVI-HD_CDVL_videos\\ORIG\\TreeGrassFamily_1920x1080_30fps.mp4",
  "output": "C:\\Users\\Peter\\Desktop\\stuff\\MIUN\\quantitative_research\\video_compression\\compressed_videos\\BVI-HD\\vp9\\2\\TreeGrassFamily_1920x1080_30fps_vp9.webm",
  "codec": "vp9",
  "ok": "Input #0, mov,mp4,m4a,3gp,3g2,mj2, from 'C:\\Users\\Peter\\Desktop\\stuff\\MIUN\\quantitative_research\\video_compression\\videos\\BVI-HD\\BVI-HD_CDVL_videos\\ORIG\\TreeGrassFamily_1920x1080_30fps.mp4':\n  Metadata:\n    major_brand     : isom\n    minor_version   : 512\n    compatible_brands: isomiso2avc1mp41\n    encoder         : Lavf54.28.101\n  Duration: 00:00:05.00, start: 0.000000, bitrate: 331787 kb/s\n  Stream #0:0[0x1](und): Video: h264 (High 4:4:4 Predictive) (avc1 / 0x31637661), yuv420p(progressive), 1920x1080, 331784 kb/s, 30 fps, 30 tbr, 30 tbn (default)\n    Metadata:\n      handler_name    : VideoHandler\n      vendor_id       : [0][0][0][0]\n[out#0/webm @ 000001e56b130b80] Codec AVOption b:a (set bitrate (in bits/s)) has not been used for any stream. The most likely reason is either wrong type (e.g. a video option with no video streams) or that it is a private option of some decoder which was not actually used for any stream.\nStream mapping:\n  Stream #0:0 -> #0:0 (h264 (native) -> vp9 (libvpx-vp9))\nPress [q] to stop, [?] for help\n[libvpx-vp9 @ 000001e56bc507c0] v1.15.2-100-g40561f514\nOutput #0, webm, to 'C:\\Users\\Peter\\Desktop\\stuff\\MIUN\\quantitative_research\\video_compression\\compressed_videos\\BVI-HD\\vp9\\2\\TreeGrassFamily_1920x1080_30fps_vp9.webm':\n  Metadata:\n    major_brand     : isom\n    minor_version   : 512\n    compatible_brands: isomiso2avc1mp41\n    encoder         : Lavf62.3.100\n  Stream #0:0(und): Video: vp9, yuv420p(tv, progressive), 1920x1080, q=2-31, 2000 kb/s, 30 fps, 1k tbn (default)\n    Metadata:\n      encoder         : Lavc62.11.100 libvpx-vp9\n      handler_name    : VideoHandler\n      vendor_id       : [0][0][0][0]\n    Side data:\n      cpb: bitrate max/min/avg: 0/0/0 buffer size: 2000000 vbv_delay: N/A\nframe=    0 fps=0.0 q=0.0 size=       0KiB time=N/A bitrate=N/A speed=N/A elapsed=0:00:00.52    \nframe=    2 fps=1.7 q=48.0 size=       1KiB time=00:00:00.06 bitrate=  76.1kbits/s speed=0.0574x elapsed=0:00:01.16    \nframe=    7 fps=4.2 q=63.0 size=       1KiB time=00:00:00.23 bitrate=  21.7kbits/s speed=0.139x elapsed=0:00:01.68    \nframe=   11 fps=5.0 q=42.0 size=       1KiB time=00:00:00.36 bitrate=  13.8kbits/s speed=0.165x elapsed=0:00:02.22    \nframe=   15 fps=5.5 q=57.0 size=       1KiB time=00:00:00.50 bitrate=  10.1kbits/s speed=0.182x elapsed=0:00:02.74    \nframe=   19 fps=5.8 q=57.0 size=       1KiB time=00:00:00.63 bitrate=   8.0kbits/s speed=0.194x elapsed=0:00:03.26    \nframe=   22 fps=5.8 q=56.0 size=       1KiB time=00:00:00.73 bitrate=   6.9kbits/s speed=0.194x elapsed=0:00:03.78    \nframe=   26 fps=6.0 q=61.0 size=       1KiB time=00:00:00.86 bitrate=   5.9kbits/s speed=0.202x elapsed=0:00:04.30    \nframe=   30 fps=6.2 q=61.0 size=       1KiB time=00:00:01.00 bitrate=   5.1kbits/s speed=0.207x elapsed=0:00:04.83    \nframe=   34 fps=6.3 q=61.0 size=       1KiB time=00:00:01.13 bitrate=   4.5kbits/s speed=0.211x elapsed=0:00:05.36    \nframe=   38 fps=6.4 q=62.0 size=       1KiB time=00:00:01.26 bitrate=   4.0kbits/s speed=0.214x elapsed=0:00:05.90    \nframe=   41 fps=6.3 q=41.0 size=       1KiB time=00:00:01.36 bitrate=   3.7kbits/s speed=0.211x elapsed=0:00:06.47    \nframe=   45 fps=6.4 q=60.0 size=       1KiB time=00:00:01.50 bitrate=   3.4kbits/s speed=0.214x elapsed=0:00:07.01    \nframe=   50 fps=6.6 q=63.0 size=       1KiB time=00:00:01.63 bitrate=   3.1kbits/s speed=0.217x elapsed=0:00:07.53    \nframe=   53 fps=6.6 q=59.0 size=       1KiB time=00:00:01.76 bitrate=   2.9kbits/s speed=0.219x elapsed=0:00:08.07    \nframe=   57 fps=6.6 q=61.0 size=       1KiB time=00:00:01.90 bitrate=   2.7kbits/s speed=0.22x elapsed=0:00:08.64    \nframe=   60 fps=6.5 q=63.0 size=       1KiB time=00:00:02.00 bitrate=   2.5kbits/s speed=0.218x elapsed=0:00:09.16    \nframe=   64 fps=6.6 q=62.0 size=       1KiB time=00:00:02.13 bitrate=   2.4kbits/s speed=0.221x elapsed=0:00:09.67    \nframe=   68 fps=6.7 q=63.0 size=       1KiB time=00:00:02.26 bitrate=   2.2kbits/s speed=0.222x elapsed=0:00:10.19    \nframe=   72 fps=6.7 q=59.0 size=       1KiB time=00:00:02.40 bitrate=   2.1kbits/s speed=0.224x elapsed=0:00:10.71    \nframe=   77 fps=6.8 q=60.0 size=       1KiB time=00:00:02.53 bitrate=   2.0kbits/s speed=0.225x elapsed=0:00:11.26    \nframe=   80 fps=6.8 q=63.0 size=       1KiB time=00:00:02.66 bitrate=   1.9kbits/s speed=0.226x elapsed=0:00:11.80    \nframe=   84 fps=6.8 q=62.0 size=       1KiB time=00:00:02.80 bitrate=   1.8kbits/s speed=0.227x elapsed=0:00:12.33    \nframe=   88 fps=6.8 q=63.0 size=       1KiB time=00:00:02.93 bitrate=   1.7kbits/s speed=0.228x elapsed=0:00:12.87    \nframe=   92 fps=6.9 q=59.0 size=       1KiB time=00:00:03.06 bitrate=   1.7kbits/s speed=0.229x elapsed=0:00:13.40    \nframe=   96 fps=6.9 q=63.0 size=       1KiB time=00:00:03.20 bitrate=   1.6kbits/s speed=0.23x elapsed=0:00:13.92    \nframe=  100 fps=6.9 q=63.0 size=       1KiB time=00:00:03.33 bitrate=   1.5kbits/s speed=0.231x elapsed=0:00:14.44    \nframe=  104 fps=6.9 q=62.0 size=       1KiB time=00:00:03.46 bitrate=   1.5kbits/s speed=0.231x elapsed=0:00:14.99    \nframe=  108 fps=7.0 q=63.0 size=       1KiB time=00:00:03.60 bitrate=   1.4kbits/s speed=0.232x elapsed=0:00:15.51    \nframe=  112 fps=7.0 q=60.0 size=       1KiB time=00:00:03.73 bitrate=   1.4kbits/s speed=0.233x elapsed=0:00:16.04    \nframe=  116 fps=7.0 q=63.0 size=       1KiB time=00:00:03.86 bitrate=   1.3kbits/s speed=0.233x elapsed=0:00:16.58    \nframe=  120 fps=7.0 q=63.0 size=       1KiB time=00:00:04.00 bitrate=   1.3kbits/s speed=0.234x elapsed=0:00:17.12    \nframe=  124 fps=7.0 q=63.0 size=       1KiB time=00:00:04.13 bitrate=   1.2kbits/s speed=0.234x elapsed=0:00:17.64    \nframe=  126 fps=6.9 q=63.0 size=       1KiB time=00:00:04.20 bitrate=   1.2kbits/s speed=0.231x elapsed=0:00:18.15    \nframe=  126 fps=6.7 q=63.0 size=       1KiB time=00:00:04.20 bitrate=   1.2kbits/s speed=0.225x elapsed=0:00:18.68    \nframe=  126 fps=6.6 q=63.0 size=       1KiB time=00:00:04.20 bitrate=   1.2kbits/s speed=0.219x elapsed=0:00:19.21    \nframe=  126 fps=6.4 q=63.0 size=       1KiB time=00:00:04.20 bitrate=   1.2kbits/s speed=0.213x elapsed=0:00:19.74    \nframe=  126 fps=6.2 q=63.0 size=       1KiB time=00:00:04.20 bitrate=   1.2kbits/s speed=0.207x elapsed=0:00:20.24    \nframe=  126 fps=6.1 q=63.0 size=       1KiB time=00:00:04.20 bitrate=   1.2kbits/s speed=0.202x elapsed=0:00:20.77    \n[out#0/webm @ 000001e56b130b80] video:1589KiB audio:0KiB subtitle:0KiB other streams:0KiB global headers:0KiB muxing overhead: 0.108300%\nframe=  150 fps=7.2 q=60.0 Lsize=    1591KiB time=00:00:05.00 bitrate=2606.0kbits/s speed=0.239x elapsed=0:00:20.94    \n",
  "seconds": 21.2239773273468,
  "probe_out": {}
}